HIERARCHY
ROOT hip
{
	OFFSET 0.000000 0.000000 0.000000
	CHANNELS 6 Xposition Yposition Zposition Xrotation Zrotation Yrotation 
	JOINT abdomen
	{
		OFFSET 0.000000 3.422050 0.000000
		CHANNELS 3 Xrotation Zrotation Yrotation 
		JOINT chest
		{
			OFFSET 0.000000 8.486693 -0.684411
			CHANNELS 3 Xrotation Zrotation Yrotation 
			JOINT neck
			{
				OFFSET 0.000000 10.266162 -0.273764
				CHANNELS 3 Xrotation Zrotation Yrotation 
				JOINT head
				{
					OFFSET 0.000000 3.148285 0.000000
					CHANNELS 3 Xrotation Zrotation Yrotation 
					End Site
					{
						OFFSET 0.000000 3.148289 0.000000
					}
				}
			}
			JOINT lCollar
			{
				OFFSET 3.422053 6.707223 -0.821293
				CHANNELS 3 Yrotation Zrotation Xrotation 
				JOINT lShldr
				{
					OFFSET 3.285171 0.000000 0.000000
					CHANNELS 3 Zrotation Yrotation Xrotation 
					JOINT lForeArm
					{
						OFFSET 10.129278 0.000000 0.000000
						CHANNELS 3 Yrotation Zrotation Xrotation 
						JOINT lHand
						{
							OFFSET 8.486692 0.000000 0.000000
							CHANNELS 3 Zrotation Yrotation Xrotation 
							End Site
							{
								OFFSET 4.106464 0.000000 0.000000
							}
						}
					}
				}
			}
			JOINT rCollar
			{
				OFFSET -3.558935 6.707223 -0.821293
				CHANNELS 3 Yrotation Zrotation Xrotation 
				JOINT rShldr
				{
					OFFSET -3.148289 0.000000 0.000000
					CHANNELS 3 Zrotation Yrotation Xrotation 
					JOINT rForeArm
					{
						OFFSET -10.266159 0.000000 0.000000
						CHANNELS 3 Yrotation Zrotation Xrotation 
						JOINT rHand
						{
							OFFSET -8.349810 0.000000 0.000000
							CHANNELS 3 Zrotation Yrotation Xrotation 
							End Site
							{
								OFFSET -4.106464 0.000000 0.000000
							}
						}
					}
				}
			}
		}
	}
	JOINT lThigh
	{
		OFFSET 5.338403 -1.642589 1.368821
		CHANNELS 3 Xrotation Zrotation Yrotation 
		JOINT lShin
		{
			OFFSET -2.053232 -20.121670 0.000000
			CHANNELS 3 Xrotation Zrotation Yrotation 
			JOINT lFoot
			{
				OFFSET 0.000000 -19.300380 -1.231939
				CHANNELS 3 Xrotation Yrotation Zrotation 
				End Site
				{
					OFFSET 0.000000 -2.463878 4.653993
				}
			}
		}
	}
	JOINT rThigh
	{
		OFFSET -5.338403 -1.642589 1.368821
		CHANNELS 3 Xrotation Zrotation Yrotation 
		JOINT rShin
		{
			OFFSET 2.053232 -20.121670 0.000000
			CHANNELS 3 Xrotation Zrotation Yrotation 
			JOINT rFoot
			{
				OFFSET 0.000000 -19.300380 -1.231939
				CHANNELS 3 Xrotation Yrotation Zrotation 
				End Site
				{
					OFFSET 0.000000 -2.463878 4.653993
				}
			}
		}
	}
}
MOTION
Frames: 6
Frame Time: 0.033264
0.000000 43.528500 0.000000 0.000000 0.000000 0.000000 0.000000 0.000000 0.000000 0.000000 0.000000 0.000000 0.000000 0.000000 0.000000 0.000000 0.000000 0.000000 0.000000 0.000000 0.000000 0.000000 0.000000 0.000000 0.000000 0.000000 0.000000 0.000000 0.000000 0.000000 0.000000 0.000000 0.000000 0.000000 0.000000 0.000000 0.000000 0.000000 0.000000 0.000000 0.000000 0.000000 0.000000 0.000000 0.000000 0.000000 0.000000 0.000000 0.000000 0.000000 0.000000 0.000000 0.000000 0.000000 0.000000 0.000000 0.000000 0.000000 0.000000 0.000000 
-4.965179 5.251862 -34.738232 -90.016792 9.013722 90.001564 -8.672758 2.868284 -2.355940 -6.594344 7.293159 -0.236451 -2.004991 8.992908 -0.001564 14.998176 0.000000 0.000000 -16.757132 -22.266579 -4.960878 -42.035046 -59.529881 -4.279085 9.757426 -5.157600 4.472932 -67.012146 -28.544605 12.289084 -43.766109 18.698709 -9.622652 29.217501 -16.132257 10.904942 13.132696 64.761353 -44.528030 -30.854502 12.580626 7.283995 16.691498 0.435780 6.760434 36.169579 0.106040 -4.375557 46.052765 5.385913 1.595328 -31.592514 -64.479668 -44.461201 125.131516 23.182280 17.870556 26.772493 15.427159 4.121610 
-5.048283 5.251862 -34.700520 -90.016129 8.513491 90.001610 -8.672758 2.868284 -2.355940 -6.594344 7.293159 -0.236451 -2.004991 8.992908 -0.001564 14.706306 0.000000 0.000000 -15.760548 -21.730333 -4.985466 -43.381977 -60.319218 -3.151046 9.911332 -5.669342 4.494202 -66.694527 -28.685644 12.337717 -43.766109 18.698709 -9.622652 29.217505 -16.132257 10.904943 13.132704 64.761368 -44.528042 -30.854502 12.580627 7.283996 15.785365 0.419985 6.798522 36.795570 0.221435 -4.379266 46.052765 5.385913 1.595328 -32.695728 -64.443108 -44.093628 125.131516 23.182280 17.870556 26.805208 15.126819 4.227736 
-5.131386 5.251862 -34.662807 -90.015488 8.013105 90.001663 -8.672759 2.868284 -2.355940 -6.594345 7.293159 -0.236451 -2.004991 8.992908 -0.001564 14.414268 0.000000 0.000000 -14.765792 -21.193708 -5.020027 -44.795395 -61.095463 -1.955930 10.065628 -6.181203 4.516883 -66.376534 -28.826933 12.385526 -43.766113 18.698711 -9.622651 29.217501 -16.132257 10.904942 13.132694 64.761353 -44.528030 -30.854506 12.580628 7.283996 14.878309 0.404780 6.836895 37.421867 0.336920 -4.381715 46.052773 5.385913 1.595328 -33.797684 -64.403488 -43.727982 125.131516 23.182281 17.870556 26.838455 14.826498 4.333903 
-5.214489 5.251862 -34.625092 -90.014854 7.512584 90.001724 -8.672758 2.868284 -2.355940 -6.594344 7.293159 -0.236451 -2.004991 8.992908 -0.001564 14.122079 0.000000 0.000000 -13.772861 -20.656975 -5.064486 -46.279419 -61.857349 -0.689655 10.220331 -6.693160 4.540982 -66.058212 -28.968483 12.432511 -43.766113 18.698711 -9.622653 29.217505 -16.132257 10.904943 13.132702 64.761368 -44.528042 -30.854506 12.580627 7.283997 13.970443 0.390171 6.875538 38.048447 0.452475 -4.382901 46.052765 5.385913 1.595328 -34.898109 -64.360802 -43.364483 125.131516 23.182283 17.870556 26.872234 14.526202 4.440117 
-5.297592 5.251863 -34.587379 -90.014198 7.011951 90.001747 -8.672758 2.868284 -2.355940 -6.594344 7.293158 -0.236451 -2.004991 8.992907 -0.001564 13.829738 0.000000 0.000000 -12.781748 -20.120399 -5.118759 -47.838203 -62.603348 0.652003 10.375457 -7.205180 4.566507 -65.739532 -29.110266 12.478663 -43.766109 18.698709 -9.622652 29.217501 -16.132256 10.904941 13.132696 64.761353 -44.528030 -30.854502 12.580626 7.283995 13.061880 0.376166 6.914436 38.675255 0.568079 -4.382823 46.052765 5.385913 1.595328 -35.996750 -64.315056 -43.003284 125.131516 23.182280 17.870556 26.906540 14.225937 4.546380 
